<svg viewBox="0 0 272 271" fill="none" xmlns="http://www.w3.org/2000/svg">
<path fill-rule="evenodd" clip-rule="evenodd" d="M136 24.7266L97.9389 63.5157L34.5714 128.374L77.8859 128.72L121.2 129.065L61.2018 199.108C28.1544 237.585 0.721908 269.611 0.240636 270.302C0.00746679 270.595 -0.0562518 270.751 0.0494801 270.771H0.104087C0.351221 270.74 1.03843 270.353 2.16573 269.611C3.05362 269.037 18.3402 258.935 41.6609 243.524C60.4758 231.09 84.5203 215.201 110.452 198.071C118.976 192.457 127.541 186.814 136 181.238V24.7266Z" fill="black" fill-opacity="0.19"/>
<path fill-rule="evenodd" clip-rule="evenodd" d="M136 182.465V25.954L161.467 0H210.236C237.027 0 258.844 0.115202 258.844 0.345604C258.844 0.576007 239.433 21.0819 215.53 45.9653L172.215 91.2395L222.268 91.4699C252.61 91.5846 271.984 91.8134 272 92.1564C272 92.1567 272 92.157 272 92.1573C272 92.1585 272 92.1598 271.999 92.1611C271.839 92.5067 259.165 101.032 243.764 111.169C230.761 119.917 185.174 150.051 136 182.465Z" fill="black" fill-opacity="0.19"/>
<path fill-rule="evenodd" clip-rule="evenodd" d="M193.753 134.16C191.294 129.707 189.214 125.102 187.804 120.275C187.313 118.594 186.946 116.886 186.589 115.229C186.437 114.514 186.285 113.809 186.128 113.12C186.047 113.457 185.966 113.807 185.886 114.168C185.646 115.215 185.388 116.34 185.083 117.45C184.637 119.07 184.166 120.684 183.586 122.259C184.455 124.014 185.076 125.907 185.444 127.941C184.904 125.033 183.848 122.41 182.277 120.075C179.883 116.466 176.76 113.628 172.907 111.557C169.177 109.471 165.133 108.075 160.778 107.374C160.706 107.362 160.632 107.352 160.56 107.339C160.632 107.299 160.706 107.258 160.778 107.215C164.261 105.206 167.603 102.382 170.807 98.7423C174.133 94.9746 176.818 90.9685 178.863 86.7239C180.905 82.4244 181.927 78.5772 181.927 75.1824C181.927 66.5323 179.737 60.032 175.359 55.6795C171.04 51.276 165.669 48.464 159.249 47.2434C152.856 45.9759 145.221 45.3381 136.345 45.332H136.219C125.771 45.332 114.797 45.9433 103.297 47.1639C91.796 48.3315 82.4868 50.0025 75.3654 52.1787C75.0717 54.194 74.926 56.0524 74.926 57.7498C74.926 59.9791 75.13 62.2878 75.5402 64.6739C75.9482 67.0091 76.531 69.1589 77.2909 71.1212L90.6887 72.7942H90.7761C90.2493 81.3913 89.9871 93.7275 89.9871 109.807C89.9871 117.01 90.079 123.688 90.2583 129.844C90.2516 129.844 90.2471 129.846 90.2426 129.848C90.2314 129.479 90.2202 129.112 90.2112 128.741C89.281 127.639 88.5771 126.388 88.0817 125.031C87.1358 122.429 86.3087 119.788 85.4815 117.149H85.4793C85.1296 116.032 84.7822 114.918 84.4235 113.807C84.3809 113.677 84.3361 113.548 84.2845 113.406C84.2487 113.31 84.2106 113.208 84.168 113.092C84.1321 112.998 84.094 112.894 84.0514 112.78C84.0268 112.87 84.0088 112.937 83.9931 112.99C83.9797 113.035 83.9707 113.069 83.964 113.096C83.955 113.133 83.9506 113.157 83.9506 113.184C84.029 121.025 82.4353 128.605 79.6961 136.006C79.3419 136.953 78.9451 137.889 78.5484 138.822C77.9476 140.238 77.3469 141.652 76.8964 143.105C75.5043 147.578 75.9975 152.091 77.1362 156.544C79.4786 165.722 84.0895 173.987 89.6127 181.87C89.6396 181.907 89.671 181.938 89.7091 181.968C89.7405 181.991 89.7764 182.015 89.8122 182.04C89.8571 182.07 89.9041 182.101 89.9535 182.139C90.543 175.849 92.2197 171.05 94.2393 169.791C88.7251 190.435 98.6036 205.153 109.271 211.849C107.059 207.546 105.124 203.242 105.317 198.396L105.342 198.408C105.396 198.533 105.452 198.653 105.51 198.775C105.568 198.9 105.626 199.022 105.68 199.146C108.303 205.005 111.746 210.413 116.319 215.181C121.508 220.603 127.674 224.67 135.417 226.49C135.654 226.545 135.892 226.586 136.183 226.637C136.235 226.647 136.289 226.655 136.345 226.665V226.431C136.222 226.176 136.098 225.93 135.979 225.689V225.685C135.645 225.019 135.336 224.393 135.054 223.758C132.911 218.924 131.301 213.979 131.481 208.693C131.512 207.847 131.644 207.008 131.777 206.166C131.839 205.771 131.9 205.377 131.951 204.984C132.037 204.99 132.122 204.99 132.207 204.99C131.844 211.034 132.752 216.601 136.345 221.227C137.643 222.9 139.292 224.448 141.359 225.852C142.659 221.862 145.396 219.167 149.319 217.516C150.875 216.858 152.554 216.3 154.239 216.065C159.307 215.366 163.196 212.937 166.384 209.443C171.645 203.682 174.655 196.952 176.372 189.683C176.433 189.434 176.489 189.184 176.543 188.935L176.545 188.923C176.572 188.801 176.599 188.68 176.628 188.558L176.89 188.601C176.805 189.322 176.731 190.046 176.655 190.769C176.482 192.436 176.31 194.103 176.023 195.755C175.742 197.377 175.348 198.979 174.951 200.593C174.77 201.333 174.586 202.072 174.415 202.818C174.521 202.733 174.633 202.649 174.749 202.561C174.904 202.445 175.061 202.327 175.211 202.203C179.977 198.274 183.521 193.54 186.157 188.226C190.783 178.9 191.906 169.098 190.736 159.005C190.548 157.412 190.283 155.827 190.021 154.241C189.896 153.491 189.77 152.744 189.654 151.994L189.887 151.928C190.496 153.811 191.108 155.692 191.716 157.567V157.571C192.612 160.326 193.502 163.067 194.381 165.779C194.39 165.752 194.401 165.724 194.415 165.693L194.435 165.642C194.448 165.608 194.464 165.569 194.482 165.528C194.554 165.353 194.641 165.137 194.722 164.915C196.221 160.725 197.158 156.438 197.452 152.034C197.862 145.793 196.88 139.806 193.753 134.16ZM124.048 73.9088C127.201 73.7499 129.448 73.6684 130.79 73.6684C132.821 73.6684 134.673 73.7111 136.345 73.7967C138.183 73.8884 139.806 74.0331 141.211 74.2267C143.897 74.5446 145.385 74.9419 145.676 75.4208C145.443 79.1885 144.771 84.0708 143.661 90.0658C142.612 96.0098 141.328 100.919 139.81 104.792L136.345 105.037L130.79 105.428L121.947 106.066C122.882 96.566 123.581 85.8477 124.048 73.9088ZM152.419 137.826C151.834 140.267 150.96 142.522 149.792 144.591C148.682 146.661 147.398 148.093 145.939 148.89C143.971 149.239 140.772 149.422 136.345 149.444C136.047 149.447 135.742 149.447 135.432 149.447H132.893C128.338 149.447 124.135 149.235 120.284 148.809C120.284 146.899 120.313 145.175 120.371 143.635C120.43 142.097 120.488 140.743 120.546 139.576L120.809 127.955C121.51 127.955 122.559 127.875 123.96 127.716C128.555 127.291 132.684 127.052 136.345 127.007C136.777 127.001 137.201 126.999 137.62 126.999C147.019 126.999 152.244 128.379 153.293 131.14C153.293 133.102 153.002 135.331 152.419 137.826Z" fill="#FFFCF0"/>
</svg>
