<svg viewBox="0 0 180 182" fill="none" xmlns="http://www.w3.org/2000/svg">
<path d="M179.202 93.1828C179.202 87.0369 178.608 80.6927 177.616 74.7451H91.7721V109.836H140.939C138.957 121.137 132.414 131.049 122.7 137.394L152.041 160.193C169.29 144.134 179.202 120.74 179.202 93.1828Z" fill="#4280EF"/>
<path d="M91.7721 182C116.356 182 136.974 173.871 152.041 159.993L122.7 137.392C114.571 142.944 104.064 146.116 91.7721 146.116C67.9816 146.116 47.9579 130.057 40.6225 108.646L10.4878 131.841C25.9516 162.571 57.2758 182 91.7721 182Z" fill="#34A353"/>
<path d="M40.6224 108.448C36.8556 97.1474 36.8556 84.8556 40.6224 73.5551L10.4878 50.1611C-2.39876 75.9342 -2.39876 106.267 10.4878 131.842L40.6224 108.448Z" fill="#F6B704"/>
<path d="M91.7721 36.0848C104.659 35.8865 117.347 40.8429 126.665 49.7643L152.636 23.5948C136.181 8.13091 114.373 -0.195771 91.7721 0.00248355C57.2758 0.00248355 25.9516 19.4314 10.4878 50.1608L40.6225 73.5549C47.9579 51.9451 67.9816 36.0848 91.7721 36.0848Z" fill="#E54335"/>
</svg>